<svg width="24" height="24" viewBox="0 0 24 24" fill="#edf3ee" xmlns="http://www.w3.org/2000/svg">
<path opacity="0.4" d="M12 22C17.5228 22 22 17.5228 22 12C22 6.47715 17.5228 2 12 2C6.47715 2 2 6.47715 2 12C2 17.5228 6.47715 22 12 22Z"/>
<path d="M16.03 11.4704L13.03 8.47043C12.74 8.18043 12.26 8.18043 11.97 8.47043C11.68 8.76043 11.68 9.24043 11.97 9.53043L13.69 11.2504H8.5C8.09 11.2504 7.75 11.5904 7.75 12.0004C7.75 12.4104 8.09 12.7504 8.5 12.7504H13.69L11.97 14.4704C11.68 14.7604 11.68 15.2404 11.97 15.5304C12.12 15.6804 12.31 15.7504 12.5 15.7504C12.69 15.7504 12.88 15.6804 13.03 15.5304L16.03 12.5304C16.32 12.2404 16.32 11.7604 16.03 11.4704Z"/>
</svg>