<svg width="24" height="24" viewBox="0 0 24 24" fill="#fff" xmlns="http://www.w3.org/2000/svg">
<path d="M10.98 6.19L7.26999 2.47998C7.19999 2.40998 7.10998 2.35 7.00998 2.31C6.99998 2.31 6.98995 2.30999 6.97995 2.29999C6.89995 2.26999 6.80994 2.25 6.71994 2.25C6.51994 2.25 6.32997 2.32997 6.18997 2.46997L2.46994 6.19C2.17994 6.48 2.17994 6.96 2.46994 7.25C2.75994 7.54 3.24 7.54 3.53 7.25L5.97995 4.79999V21C5.97995 21.41 6.31995 21.75 6.72995 21.75C7.13995 21.75 7.47995 21.41 7.47995 21V4.81L9.91995 7.25C10.07 7.4 10.26 7.46997 10.45 7.46997C10.64 7.46997 10.83 7.4 10.98 7.25C11.27 6.96 11.27 6.49 10.98 6.19Z"/>
<path opacity="0.4" d="M21.53 16.75C21.24 16.46 20.7599 16.46 20.4699 16.75L18.02 19.2V3C18.02 2.59 17.68 2.25 17.27 2.25C16.86 2.25 16.52 2.59 16.52 3V19.19L14.08 16.75C13.79 16.46 13.31 16.46 13.02 16.75C12.73 17.04 12.73 17.52 13.02 17.81L16.73 21.52C16.8 21.59 16.89 21.65 16.99 21.69C17 21.69 17.01 21.69 17.02 21.7C17.1 21.73 17.19 21.75 17.28 21.75C17.48 21.75 17.67 21.67 17.81 21.53L21.53 17.81C21.82 17.51 21.82 17.04 21.53 16.75Z"/>
</svg>