<svg width="24" height="24" viewBox="0 0 24 24" fill="#dee0e4" xmlns="http://www.w3.org/2000/svg">
<g clip-path="url(#clip0_4418_4928)">
<path opacity="0.4" d="M12.93 4.78906H7.35C3.25 4.78906 2 6.03906 2 10.1391V13.8591C2 17.9591 3.25 19.2091 7.35 19.2091H12.93C17.03 19.2091 18.28 17.9591 18.28 13.8591V10.1391C18.28 6.03906 17.03 4.78906 12.93 4.78906Z"/>
<path d="M20.4202 9.00047C20.2802 8.99047 20.1002 8.98047 19.9002 8.98047C19.5102 8.98047 19.2002 9.29047 19.2002 9.68047V14.3305C19.2002 14.7205 19.5102 15.0305 19.9002 15.0305C20.1002 15.0305 20.2702 15.0205 20.4402 15.0105C22.0002 14.8305 22.0002 13.7305 22.0002 12.9305V11.0705C22.0002 10.2705 22.0002 9.17047 20.4202 9.00047Z"/>
<path d="M6.38007 14.7501C6.32007 14.7501 6.26007 14.7401 6.20007 14.7301C5.80007 14.6301 5.55007 14.2201 5.65007 13.8201C5.95007 12.6301 5.95007 11.3701 5.65007 10.1801C5.55007 9.7801 5.79007 9.3701 6.20007 9.2701C6.60007 9.1701 7.00007 9.4201 7.10007 9.8201C7.46007 11.2501 7.46007 12.7601 7.10007 14.1801C7.02007 14.5201 6.71007 14.7501 6.38007 14.7501Z"/>
<path d="M9.88007 14.7507C9.82007 14.7507 9.76007 14.7407 9.70007 14.7307C9.30007 14.6307 9.05007 14.2207 9.15007 13.8207C9.45007 12.6307 9.45007 11.3707 9.15007 10.1807C9.05007 9.78068 9.29007 9.37068 9.70007 9.27068C10.1001 9.17068 10.5101 9.41068 10.6101 9.82068C10.9701 11.2507 10.9701 12.7607 10.6101 14.1807C10.5201 14.5207 10.2101 14.7507 9.88007 14.7507Z"/>
</g>
<defs>
<clipPath id="clip0_4418_4928">
<rect width="24" height="24" fill="#dee0e4"/>
</clipPath>
</defs>
</svg>