<svg width="24" height="24" viewBox="0 0 24 24" fill="#dee0e4" xmlns="http://www.w3.org/2000/svg">
<g clip-path="url(#clip0_4418_4926)">
<path opacity="0.4" d="M12.93 4.78906H7.35C3.25 4.78906 2 6.03906 2 10.1391V13.8591C2 17.9591 3.25 19.2091 7.35 19.2091H12.93C17.03 19.2091 18.28 17.9591 18.28 13.8591V10.1391C18.28 6.03906 17.03 4.78906 12.93 4.78906Z"/>
<path d="M20.4202 9.00047C20.2802 8.99047 20.1002 8.98047 19.9002 8.98047C19.5102 8.98047 19.2002 9.29047 19.2002 9.68047V14.3305C19.2002 14.7205 19.5102 15.0305 19.9002 15.0305C20.1002 15.0305 20.2702 15.0205 20.4402 15.0105C22.0002 14.8305 22.0002 13.7305 22.0002 12.9305V11.0705C22.0002 10.2705 22.0002 9.17047 20.4202 9.00047Z"/>
</g>
<defs>
<clipPath id="clip0_4418_4926">
<rect width="24" height="24" fill="#dee0e4"/>
</clipPath>
</defs>
</svg>