<svg width="24" height="24" viewBox="0 0 24 24" fill="#fff" xmlns="http://www.w3.org/2000/svg">
<path opacity="0.4" d="M22 10.7604C22 10.2904 21.62 9.90039 21.14 9.90039H2.86C2.38 9.90039 2 10.2804 2 10.7604C2 16.6504 6.11 20.7604 12 20.7604C17.89 20.7604 22 16.6404 22 10.7604Z"/>
<path d="M12.53 3.46041L15.38 6.30041C15.67 6.59041 15.67 7.07041 15.38 7.36041C15.09 7.65041 14.61 7.65041 14.32 7.36041L12.75 5.80041V15.3704C12.75 15.7804 12.41 16.1204 12 16.1204C11.59 16.1204 11.25 15.7804 11.25 15.3704V5.80041L9.68999 7.37041C9.39999 7.66041 8.91999 7.66041 8.62999 7.37041C8.47999 7.22041 8.39999 7.03041 8.39999 6.84041C8.39999 6.65041 8.46999 6.46041 8.61999 6.31041L11.47 3.47041C11.76 3.17041 12.24 3.17041 12.53 3.46041Z"/>
</svg>