<svg width="24" height="24" viewBox="0 0 24 24" fill="#fff" xmlns="http://www.w3.org/2000/svg">
<g clip-path="url(#clip0_4418_4949)">
<path d="M21.7699 2.23086C21.4699 1.93086 20.9799 1.93086 20.6799 2.23086L2.22988 20.6909C1.92988 20.9909 1.92988 21.4809 2.22988 21.7809C2.37988 21.9209 2.56988 22.0009 2.76988 22.0009C2.96988 22.0009 3.15988 21.9209 3.30988 21.7709L21.7699 3.31086C22.0799 3.01086 22.0799 2.53086 21.7699 2.23086Z"/>
<path opacity="0.4" d="M14.82 3.52087V9.18087L9.18001 14.8209V13.2809H6.09001C4.69001 13.2809 4.30001 12.4209 5.23001 11.3709L12 3.67087L12.8 2.76087C13.91 1.50087 14.82 1.84087 14.82 3.52087Z"/>
<path opacity="0.4" d="M18.7702 12.6307L12.0002 20.3307L11.2002 21.2407C10.0902 22.5007 9.18018 22.1607 9.18018 20.4807V17.8207L16.2802 10.7207H17.9102C19.3102 10.7207 19.7002 11.5807 18.7702 12.6307Z"/>
</g>
<defs>
<clipPath id="clip0_4418_4949">
<rect width="24" height="24" fill="white"/>
</clipPath>
</defs>
</svg>