<svg width="24" height="24" viewBox="0 0 24 24" fill="#edf3ee" xmlns="http://www.w3.org/2000/svg">
<g clip-path="url(#clip0_4418_4764)">
<path d="M8.51 2V8.5H2V7.81C2 4.17 4.17 2 7.81 2H8.51Z"/>
<path d="M21.9998 7.81V8.5H15.5098V2H16.1898C19.8298 2 21.9998 4.17 21.9998 7.81Z"/>
<path d="M21.9998 15.5V16.19C21.9998 19.83 19.8298 22 16.1898 22H15.5098V15.5H21.9998Z"/>
<path d="M8.51 15.5V22H7.81C4.17 22 2 19.83 2 16.19V15.5H8.51Z"/>
<path opacity="0.4" d="M8.51 8.5H2V15.5H8.51V8.5Z"/>
<path opacity="0.4" d="M21.9998 8.5H15.5098V15.5H21.9998V8.5Z"/>
<path d="M15.5098 8.5H8.50977V15.5H15.5098V8.5Z"/>
<path opacity="0.4" d="M15.5098 2H8.50977V8.5H15.5098V2Z"/>
<path opacity="0.4" d="M15.5098 15.5H8.50977V22H15.5098V15.5Z"/>
</g>
<defs>
<clipPath id="clip0_4418_4764">
<rect width="24" height="24" fill="#edf3ee"/>
</clipPath>
</defs>
</svg>