<svg width="24" height="24" viewBox="0 0 24 24" fill="#dee0e4" xmlns="http://www.w3.org/2000/svg">
<g clip-path="url(#clip0_4418_4746)">
<path d="M21.5298 17.31V17.15C21.5298 15.22 20.5498 14.25 18.6298 14.25C16.7098 14.25 15.7298 15.23 15.7298 17.15V17.31C14.6798 17.57 14.2598 18.29 14.2598 19.73V20.47C14.2598 22.32 14.9498 23 16.7898 23H20.4698C22.3198 23 22.9998 22.31 22.9998 20.47V19.73C22.9998 18.3 22.5798 17.57 21.5298 17.31ZM18.6198 15.63C19.9098 15.63 20.1398 16.12 20.1398 17.15V17.2H17.0998V17.15C17.0998 16.12 17.3298 15.63 18.6198 15.63Z"/>
<path d="M8.3902 2.16992V8.61993H1.93018V7.93994C1.93018 4.32994 4.08019 2.17993 7.69019 2.17993H8.3902V2.16992Z"/>
<path d="M21.7703 7.93018C21.7703 8.31018 21.4603 8.61017 21.0903 8.61017H15.3403V2.16016H16.0103C19.1903 2.17016 21.7703 4.75018 21.7703 7.93018Z"/>
<path d="M8.39044 15.5508V21.3108C8.39044 21.6908 8.08042 21.9908 7.71042 21.9908H7.70044C4.52044 21.9908 1.94043 19.4108 1.94043 16.2308V15.5508H8.39044Z"/>
<path opacity="0.4" d="M8.40042 8.60938H1.94043V15.5494H8.40042V8.60938Z"/>
<path d="M15.3301 8.60938V14.5494C15.3301 15.0994 14.8801 15.5494 14.3301 15.5494H8.39014V8.60938H15.3301Z"/>
<path opacity="0.4" d="M15.3301 2.16992H8.39014V8.61993H15.3301V2.16992Z"/>
</g>
<defs>
<clipPath id="clip0_4418_4746">
<rect width="24" height="24" fill="#dee0e4"/>
</clipPath>
</defs>
</svg>