<svg xmlns="http://www.w3.org/2000/svg" width="24" height="24" viewBox="0 0 24 24" fill="#dee0e4">
<g clip-path="url(#clip0_4418_4383)">
<path opacity="0.4" d="M19.1202 9.12035C18.7302 9.12035 18.4202 9.43035 18.4202 9.82035V11.4004C18.4202 14.9404 15.5402 17.8204 12.0002 17.8204C8.46018 17.8204 5.58018 14.9404 5.58018 11.4004V9.81035C5.58018 9.42035 5.27018 9.11035 4.88018 9.11035C4.49018 9.11035 4.18018 9.42035 4.18018 9.81035V11.3904C4.18018 15.4604 7.31018 18.8104 11.3002 19.1704V21.3004C11.3002 21.6904 11.6102 22.0004 12.0002 22.0004C12.3902 22.0004 12.7002 21.6904 12.7002 21.3004V19.1704C16.6802 18.8204 19.8202 15.4604 19.8202 11.3904V9.81035C19.8102 9.43035 19.5002 9.12035 19.1202 9.12035Z" fill="white" style="fill: var(--fillg);"/>
<path d="M12.0001 2C9.56008 2 7.58008 3.98 7.58008 6.42V11.54C7.58008 13.98 9.56008 15.96 12.0001 15.96C14.4401 15.96 16.4201 13.98 16.4201 11.54V6.42C16.4201 3.98 14.4401 2 12.0001 2ZM13.3101 8.95C13.2401 9.21 13.0101 9.38 12.7501 9.38C12.7001 9.38 12.6501 9.37 12.6001 9.36C12.2101 9.25 11.8001 9.25 11.4101 9.36C11.0901 9.45 10.7801 9.26 10.7001 8.95C10.6101 8.64 10.8001 8.32 11.1101 8.24C11.7001 8.08 12.3201 8.08 12.9101 8.24C13.2101 8.32 13.3901 8.64 13.3101 8.95ZM13.8401 7.01C13.7501 7.25 13.5301 7.39 13.2901 7.39C13.2201 7.39 13.1601 7.38 13.0901 7.36C12.3901 7.1 11.6101 7.1 10.9101 7.36C10.6101 7.47 10.2701 7.31 10.1601 7.01C10.0501 6.71 10.2101 6.37 10.5101 6.27C11.4701 5.92 12.5301 5.92 13.4901 6.27C13.7901 6.38 13.9501 6.71 13.8401 7.01Z" fill="white" style="fill: var(--fillg);"/>
</g>
<defs>
<clipPath id="clip0_4418_4383">
<rect width="24" height="24" fill="white"/>
</clipPath>
</defs>
</svg>