<svg xmlns="http://www.w3.org/2000/svg" width="24" height="24" viewBox="0 0 24 24" fill="#fff">
<g clip-path="url(#clip0_3261_12995)">
<path d="M9.90999 6.62001C9.90999 6.62001 9.90999 6.59001 9.91999 6.57001C10.13 5.26001 11.04 4.12001 12.31 3.62001L15.91 2.23001C16.93 1.83001 18.09 1.97001 18.99 2.59001C19.9 3.20001 20.44 4.24001 20.44 5.33001C20.44 6.61001 19.5 7.97001 18.31 8.43001L11.63 11.02C11.46 11.09 11.32 11.29 11.32 11.47V17.56C11.32 20.31 8.78999 22.49 5.92999 21.89C4.25999 21.54 2.89999 20.19 2.54999 18.51C1.94999 15.65 4.12999 13.12 6.87999 13.12C8.02999 13.12 9.06999 13.55 9.85999 14.27V7.20001L9.90999 6.62001Z" fill="white" style="fill: var(--fillg);"/>
<path opacity="0.4" d="M21.17 16.98C21.17 17.05 21.13 17.21 20.94 17.27L19.96 17.54C19.11 17.77 18.47 18.41 18.24 19.26L17.98 20.22C17.92 20.44 17.75 20.46 17.67 20.46C17.59 20.46 17.42 20.44 17.36 20.22L17.1 19.25C16.87 18.41 16.22 17.77 15.38 17.54L14.41 17.28C14.2 17.22 14.18 17.04 14.18 16.97C14.18 16.89 14.2 16.71 14.41 16.65L15.39 16.39C16.23 16.15 16.87 15.51 17.1 14.67L17.36 13.72L17.38 13.65C17.45 13.48 17.61 13.45 17.67 13.45C17.73 13.45 17.9 13.47 17.96 13.63L18.24 14.66C18.47 15.5 19.12 16.14 19.96 16.38L20.93 16.64L20.96 16.66C21.16 16.74 21.17 16.92 21.17 16.98Z" fill="white" style="fill: var(--fillg);"/>
</g>
<defs>
<clipPath id="clip0_3261_12995">
<rect width="24" height="24" fill="white"/>
</clipPath>
</defs>
</svg>