<svg width="24" height="24" viewBox="0 0 24 24" fill="#edf3ee" xmlns="http://www.w3.org/2000/svg">
<g clip-path="url(#clip0_4418_4371)">
<path d="M10.2899 10.3398V18.4098C10.2899 20.3898 8.66986 21.9998 6.69986 21.9998C4.71986 21.9998 3.10986 20.3898 3.10986 18.4098C3.10986 16.4398 4.71986 14.8298 6.69986 14.8298C7.52986 14.8298 8.27986 15.1198 8.88986 15.5898V10.7398L10.2899 10.3398Z"/>
<path d="M20.89 7.32031V16.4803C20.89 18.4603 19.28 20.0703 17.3 20.0703C15.33 20.0703 13.71 18.4603 13.71 16.4803C13.71 14.5103 15.33 12.9003 17.3 12.9003C18.14 12.9003 18.89 13.1903 19.5 13.6703V7.72031L20.89 7.32031Z"/>
<path opacity="0.4" d="M20.8901 5.17958V7.31958L8.89014 10.7396V6.74958C8.89014 5.27958 9.78014 4.13958 11.1901 3.75958L16.9701 2.17958C18.1401 1.85958 19.1301 1.96958 19.8301 2.50958C20.5401 3.03958 20.8901 3.93958 20.8901 5.17958Z"/>
</g>
<defs>
<clipPath id="clip0_4418_4371">
<rect width="24" height="24" fill="#edf3ee"/>
</clipPath>
</defs>
</svg>