<svg width="24" height="24" viewBox="0 0 24 24" fill="#fff" xmlns="http://www.w3.org/2000/svg">
<g clip-path="url(#clip0_4418_4313)">
<path opacity="0.4" d="M3.75977 7.21956V16.7896C3.75977 18.7496 5.88975 19.9796 7.58975 18.9996L11.7397 16.6095L15.8898 14.2096C17.5898 13.2296 17.5898 10.7795 15.8898 9.79955L11.7397 7.39956L7.58975 5.00957C5.88975 4.02957 3.75977 5.24956 3.75977 7.21956Z"/>
<path d="M20.2402 18.9303C19.8302 18.9303 19.4902 18.5903 19.4902 18.1803V5.82031C19.4902 5.41031 19.8302 5.07031 20.2402 5.07031C20.6502 5.07031 20.9902 5.41031 20.9902 5.82031V18.1803C20.9902 18.5903 20.6602 18.9303 20.2402 18.9303Z"/>
</g>
<defs>
<clipPath id="clip0_4418_4313">
<rect width="24" height="24" fill="white"/>
</clipPath>
</defs>
</svg>