<svg width="24" height="24" viewBox="0 0 24 24" fill="#fff" xmlns="http://www.w3.org/2000/svg">
<g clip-path="url(#clip0_4418_4370)">
<path opacity="0.4" d="M11.9702 22C17.4931 22 21.9702 17.5228 21.9702 12C21.9702 6.47715 17.4931 2 11.9702 2C6.44737 2 1.97021 6.47715 1.97021 12C1.97021 17.5228 6.44737 22 11.9702 22Z"/>
<path d="M10.72 15.0298V8.9698C10.72 8.4898 10.52 8.2998 10.01 8.2998H8.71C8.2 8.2998 8 8.4898 8 8.9698V15.0298C8 15.5098 8.2 15.6998 8.71 15.6998H10C10.52 15.6998 10.72 15.5098 10.72 15.0298Z"/>
<path d="M16 15.0298V8.9698C16 8.4898 15.8 8.2998 15.29 8.2998H14C13.49 8.2998 13.29 8.4898 13.29 8.9698V15.0298C13.29 15.5098 13.49 15.6998 14 15.6998H15.29C15.8 15.6998 16 15.5098 16 15.0298Z"/>
</g>
<defs>
<clipPath id="clip0_4418_4370">
<rect width="24" height="24" fill="white"/>
</clipPath>
</defs>
</svg>