<svg width="24" height="24" viewBox="0 0 24 24" fill="#edf3ee" xmlns="http://www.w3.org/2000/svg">
<g clip-path="url(#clip0_4418_4312)">
<path opacity="0.4" d="M20.24 7.21956V16.7896C20.24 18.7496 18.11 19.9796 16.41 18.9996L12.26 16.6095L8.10996 14.2096C6.40996 13.2296 6.40996 10.7795 8.10996 9.79955L12.26 7.39956L16.41 5.00957C18.11 4.02957 20.24 5.24956 20.24 7.21956Z"/>
<path d="M3.75977 18.9303C3.34977 18.9303 3.00977 18.5903 3.00977 18.1803V5.82031C3.00977 5.41031 3.34977 5.07031 3.75977 5.07031C4.16977 5.07031 4.50977 5.41031 4.50977 5.82031V18.1803C4.50977 18.5903 4.16977 18.9303 3.75977 18.9303Z"/>
</g>
<defs>
<clipPath id="clip0_4418_4312">
<rect width="24" height="24" fill="#edf3ee"/>
</clipPath>
</defs>
</svg>