<svg width="24" height="24" viewBox="0 0 24 24" fill="#fff" xmlns="http://www.w3.org/2000/svg">
<g clip-path="url(#clip0_4418_4367)">
<path opacity="0.4" d="M11.9702 22C17.4931 22 21.9702 17.5228 21.9702 12C21.9702 6.47715 17.4931 2 11.9702 2C6.44737 2 1.97021 6.47715 1.97021 12C1.97021 17.5228 6.44737 22 11.9702 22Z"/>
<path d="M10.77 16.2295H13.23C14.89 16.2295 16.23 14.8895 16.23 13.2295V10.7695C16.23 9.10953 14.89 7.76953 13.23 7.76953H10.77C9.11002 7.76953 7.77002 9.10953 7.77002 10.7695V13.2295C7.77002 14.8895 9.11002 16.2295 10.77 16.2295Z"/>
</g>
<defs>
<clipPath id="clip0_4418_4367">
<rect width="24" height="24" fill="white"/>
</clipPath>
</defs>
</svg>