<svg width="24" height="24" viewBox="0 0 24 24" fill="#dee0e4" xmlns="http://www.w3.org/2000/svg">
<g clip-path="url(#clip0_4418_4385)">
<path d="M19.3299 16.7503C19.1699 16.7503 19.0199 16.7003 18.8799 16.6003C18.5499 16.3503 18.4799 15.8803 18.7299 15.5503C20.2999 13.4603 20.2999 10.5403 18.7299 8.45027C18.4799 8.12027 18.5499 7.65027 18.8799 7.40027C19.2099 7.15027 19.6799 7.22027 19.9299 7.55027C21.8999 10.1703 21.8999 13.8303 19.9299 16.4503C19.7899 16.6503 19.5599 16.7503 19.3299 16.7503Z"/>
<path opacity="0.4" d="M17.0801 7.40972V16.5897C17.0801 18.3097 16.4601 19.5997 15.3501 20.2197C14.9001 20.4697 14.4001 20.5897 13.8801 20.5897C13.0801 20.5897 12.2201 20.3197 11.3401 19.7697L8.42008 17.9397C8.22008 17.8197 7.99008 17.7497 7.76008 17.7497H6.83008V6.24972H7.76008C7.99008 6.24972 8.22008 6.17972 8.42008 6.05972L11.3401 4.22972C12.8001 3.31972 14.2301 3.15972 15.3501 3.77972C16.4601 4.39972 17.0801 5.68972 17.0801 7.40972Z"/>
<path d="M6.83008 6.25V17.75H6.33008C3.91008 17.75 2.58008 16.42 2.58008 14V10C2.58008 7.58 3.91008 6.25 6.33008 6.25H6.83008Z"/>
</g>
<defs>
<clipPath id="clip0_4418_4385">
<rect width="24" height="24" fill="#dee0e4"/>
</clipPath>
</defs>
</svg>