<svg width="24" height="24" viewBox="0 0 24 24" fill="#fff" xmlns="http://www.w3.org/2000/svg">
<g clip-path="url(#clip0_4418_4378)">
<path d="M17.9998 16.7503C17.8398 16.7503 17.6898 16.7003 17.5498 16.6003C17.2198 16.3503 17.1498 15.8803 17.3998 15.5503C18.6598 13.8703 18.9298 11.6403 18.1198 9.71032C17.9598 9.33032 18.1398 8.89032 18.5198 8.73032C18.8998 8.57032 19.3398 8.75032 19.4998 9.13032C20.5198 11.5503 20.1698 14.3603 18.5998 16.4603C18.4498 16.6503 18.2298 16.7503 17.9998 16.7503Z"/>
<path d="M19.8299 19.2502C19.6699 19.2502 19.5199 19.2002 19.3799 19.1002C19.0499 18.8502 18.9799 18.3802 19.2299 18.0502C21.3699 15.2002 21.8399 11.3802 20.4599 8.0902C20.2999 7.7102 20.4799 7.2702 20.8599 7.1102C21.2399 6.9502 21.6799 7.1302 21.8399 7.5102C23.4299 11.2902 22.8899 15.6702 20.4299 18.9502C20.2899 19.1502 20.0599 19.2502 19.8299 19.2502Z"/>
<path opacity="0.4" d="M14.04 12.96C14.67 12.33 15.75 12.78 15.75 13.67V16.6C15.75 18.32 15.13 19.61 14.02 20.23C13.57 20.48 13.07 20.6 12.55 20.6C11.75 20.6 10.89 20.33 10.01 19.78L9.36998 19.38C8.82998 19.04 8.73998 18.28 9.18998 17.83L14.04 12.96Z"/>
<path opacity="0.4" d="M14.02 3.77972C12.9 3.15972 11.47 3.31972 10.01 4.22972L7.09 6.05972C6.89 6.17972 6.66 6.24972 6.43 6.24972H5.5H5C2.58 6.24972 1.25 7.57972 1.25 9.99972V13.9997C1.25 16.4197 2.58 17.7497 5 17.7497H5.5H6.25L15.75 8.24972V7.40972C15.75 5.68972 15.13 4.39972 14.02 3.77972Z"/>
<path d="M21.7699 2.22988C21.4699 1.92988 20.9799 1.92988 20.6799 2.22988L2.22988 20.6899C1.92988 20.9899 1.92988 21.4799 2.22988 21.7799C2.37988 21.9199 2.56988 21.9999 2.76988 21.9999C2.96988 21.9999 3.15988 21.9199 3.30988 21.7699L21.7699 3.30988C22.0799 3.00988 22.0799 2.52988 21.7699 2.22988Z"/>
</g>
<defs>
<clipPath id="clip0_4418_4378">
<rect width="24" height="24" fill="white"/>
</clipPath>
</defs>
</svg>