<svg width="24" height="24" viewBox="0 0 24 24" fill="#edf3ee" xmlns="http://www.w3.org/2000/svg">
<g clip-path="url(#clip0_4418_4349)">
<path d="M22.5299 13.4197L21.0799 11.9697L22.4799 10.5697C22.7699 10.2797 22.7699 9.79969 22.4799 9.50969C22.1899 9.21969 21.7099 9.21969 21.4199 9.50969L20.0199 10.9097L18.5699 9.45969C18.2799 9.16969 17.7999 9.16969 17.5099 9.45969C17.2199 9.74969 17.2199 10.2297 17.5099 10.5197L18.9599 11.9697L17.4699 13.4597C17.1799 13.7497 17.1799 14.2297 17.4699 14.5197C17.6199 14.6697 17.8099 14.7397 17.9999 14.7397C18.1899 14.7397 18.3799 14.6697 18.5299 14.5197L20.0199 13.0297L21.4699 14.4797C21.6199 14.6297 21.8099 14.6997 21.9999 14.6997C22.1899 14.6997 22.3799 14.6297 22.5299 14.4797C22.8199 14.1897 22.8199 13.7197 22.5299 13.4197Z"/>
<path opacity="0.4" d="M15.75 7.40972V16.5897C15.75 18.3097 15.13 19.5997 14.02 20.2197C13.57 20.4697 13.07 20.5897 12.55 20.5897C11.75 20.5897 10.89 20.3197 10.01 19.7697L7.09 17.9397C6.89 17.8197 6.66 17.7497 6.43 17.7497H5.5V6.24972H6.43C6.66 6.24972 6.89 6.17972 7.09 6.05972L10.01 4.22972C11.47 3.31972 12.9 3.15972 14.02 3.77972C15.13 4.39972 15.75 5.68972 15.75 7.40972Z"/>
<path d="M5.5 6.25V17.75H5C2.58 17.75 1.25 16.42 1.25 14V10C1.25 7.58 2.58 6.25 5 6.25H5.5Z"/>
</g>
<defs>
<clipPath id="clip0_4418_4349">
<rect width="24" height="24" fill="#edf3ee"/>
</clipPath>
</defs>
</svg>